<?xml version="1.0" encoding="UTF-8"?><svg id="Layer_1" xmlns="http://www.w3.org/2000/svg" viewBox="0 0 128 128"><defs><style>.cls-1{fill:#fff;}.cls-2{fill:#3c3c3c;}.cls-3{fill:#323232;}</style></defs><path class="cls-1" d="M64,126c-34.19,0-62-27.81-62-62S29.81,2,64,2s62,27.81,62,62-27.81,62-62,62Z"/><path class="cls-3" d="M64,4c33.08,0,60,26.92,60,60s-26.92,60-60,60S4,97.08,4,64,30.92,4,64,4M64,0C28.65,0,0,28.65,0,64s28.65,64,64,64,64-28.65,64-64S99.35,0,64,0h0Z"/><circle class="cls-2" cx="64.11" cy="65.42" r="42.5"/></svg>